<svg version="1.1" xmlns="http://www.w3.org/2000/svg" width="1254" height="1254">

<path d="M0 0 C1.55225281 -0.00250763 1.55225281 -0.00250763 3.13586426 -0.00506592 C24.49148362 -0.0071169 45.60328727 1.07891472 66.67724609 4.74121094 C73.71636565 5.90675401 80.80857635 6.75375544 87.88476562 7.66210938 C95.97986888 8.7423172 103.8215892 10.30560506 111.75 12.25 C113.58530858 12.67072177 115.42123059 13.08877823 117.2578125 13.50390625 C129.96378831 16.44187382 142.52647619 19.79037052 155.0625 23.375 C155.80526184 23.58673859 156.54802368 23.79847717 157.31329346 24.01663208 C180.26138103 30.57490748 180.26138103 30.57490748 189.625 34.6875 C193.89022421 36.51228383 198.17451274 38.11956005 202.5625 39.625 C209.33074622 42.02025597 215.77390884 44.9058791 222.2265625 48.03320312 C225.2691633 49.50033958 228.3222699 50.94468501 231.375 52.390625 C267.04402717 69.33433785 300.425992 89.14892039 331.75 113.25 C332.64428711 113.93376709 332.64428711 113.93376709 333.55664062 114.63134766 C351.73888321 128.55870492 368.6494849 143.96036961 384.80639648 160.17602539 C386.57487219 161.94991003 388.34870044 163.71831777 390.12304688 165.48632812 C395.87944116 171.23910324 401.49412516 177.03005623 406.75 183.25 C407.67485083 184.2988478 408.60186615 185.34579179 409.53125 186.390625 C417.54523136 195.51290737 424.81907946 205.12929016 432.01611328 214.90332031 C433.53849654 216.96374666 435.07507224 219.01198531 436.62109375 221.0546875 C454.35595896 244.61430271 469.19589021 270.13908761 482.6875 296.3125 C483.04076355 296.99729431 483.3940271 297.68208862 483.75799561 298.38763428 C491.95729337 314.32568126 499.2286891 330.42702411 505.47119141 347.23510742 C506.95225556 351.20055224 508.51295908 355.11109905 510.1875 359 C515.3960113 371.35974707 519.6407529 384.11144068 523.06445312 397.07470703 C524.01094571 400.65628248 525.04403202 404.16040606 526.26171875 407.66015625 C527.8615882 412.36998119 528.86737094 417.12266733 529.8125 422 C530.78228892 426.97747082 531.7883354 431.55541805 533.75 436.25 C534.12890625 438.453125 534.12890625 438.453125 534.3125 440.5 C534.33237411 444.03917514 534.33237411 444.03917514 535.75 445.25 C536.08601661 446.74069188 536.36642979 448.24394194 536.625 449.75 C536.8003125 450.760625 536.975625 451.77125 537.15625 452.8125 C537.3521875 453.946875 537.548125 455.08125 537.75 456.25 C538.07484375 458.0134375 538.07484375 458.0134375 538.40625 459.8125 C540.07704692 468.91047522 541.51038939 478.038773 542.875 487.1875 C543.04563965 488.32445312 543.2162793 489.46140625 543.39208984 490.6328125 C545.06359927 501.9824447 545.98227226 513.15579275 546.3125 524.625 C546.34376984 525.67433716 546.34376984 525.67433716 546.37567139 526.74487305 C546.8074975 541.74427197 546.85916587 556.74526239 546.875 571.75 C546.8775882 572.8916864 546.88017639 574.0333728 546.88284302 575.20965576 C546.88873948 578.50438504 546.88709852 581.79901981 546.8828125 585.09375 C546.88578087 586.56075851 546.88578087 586.56075851 546.8888092 588.05740356 C546.86840127 594.17773234 546.47469661 600.17267251 545.75 606.25 C544.76 606.25 543.77 606.25 542.75 606.25 C542.08342775 598.57732796 541.69469314 590.92980917 541.47509766 583.23339844 C540.71396252 557.69638632 538.15534316 532.41759364 533.75 507.25 C533.63440735 506.58073486 533.5188147 505.91146973 533.39971924 505.22192383 C528.19664333 475.10294072 521.80924099 445.19576442 511.49633789 416.36328125 C510.72000227 414.16506039 509.98346323 411.95634412 509.25390625 409.7421875 C507.77917233 405.29395163 506.19134265 400.89385624 504.5625 396.5 C504.26496826 395.69651123 503.96743652 394.89302246 503.66088867 394.06518555 C502.6934036 391.45906807 501.72208355 388.85440548 500.75 386.25 C500.40710937 385.32848145 500.06421875 384.40696289 499.7109375 383.45751953 C498.66678153 380.65715122 497.61570935 377.85947453 496.5625 375.0625 C496.24192627 374.20237305 495.92135254 373.34224609 495.59106445 372.45605469 C493.89007114 367.96511645 492.01523958 363.69069833 489.81103516 359.42675781 C488.56842144 356.87748403 487.50751388 354.28030123 486.44140625 351.65234375 C483.51702715 344.54263521 480.1397317 337.67601139 476.6875 330.8125 C476.35919189 330.15803894 476.03088379 329.50357788 475.69262695 328.82928467 C459.64689598 296.90540975 440.5936905 266.53428131 418.75 238.25 C418.33186035 237.70714355 417.9137207 237.16428711 417.48291016 236.60498047 C408.75869866 225.30265467 399.66961986 214.34283358 390.05200195 203.78735352 C388.60701421 202.19463344 387.16946155 200.59510235 385.74291992 198.98583984 C380.38854839 192.95421812 374.8265222 187.17056987 369.11108398 181.48071289 C367.68160283 180.05662508 366.25759489 178.62721956 364.83398438 177.19726562 C359.63353929 172.00405846 354.34283911 167.01575524 348.75 162.25 C347.55832274 161.20491603 346.3681971 160.15805994 345.1796875 159.109375 C319.68267202 136.7550975 292.05447545 117.2847154 262.75 100.25 C261.66912109 99.62061523 261.66912109 99.62061523 260.56640625 98.97851562 C221.51800625 76.40025082 179.74740776 59.90306006 136.375 47.6875 C135.29734375 47.38376465 134.2196875 47.0800293 133.109375 46.76708984 C125.866943 44.757836 118.65003133 43.06272874 111.25 41.7578125 C108.75 41.25 108.75 41.25 107.75 40.25 C106.32586643 39.96591696 104.89080193 39.73605388 103.453125 39.53125 C102.13828125 39.33982422 102.13828125 39.33982422 100.796875 39.14453125 C99.41242188 38.94923828 99.41242188 38.94923828 98 38.75 C96.19254888 38.49069238 94.38525187 38.23030784 92.578125 37.96875 C91.7727832 37.85466797 90.96744141 37.74058594 90.13769531 37.62304688 C87.65810176 37.23564207 85.20731804 36.75871178 82.75 36.25 C83.62817548 41.47283313 84.74102886 46.3412853 86.66796875 51.28125 C89.75795239 60.41502264 90.34539014 69.96022991 91.3125 79.5 C91.52367985 81.48591497 91.73633516 83.47167358 91.95043945 85.45727539 C92.26690159 88.39393714 92.58248924 91.33065462 92.89292908 94.26795959 C93.64955558 101.4211982 94.50367078 108.55505063 95.4375 115.6875 C96.51842116 124.02507947 97.38856623 132.36879017 98.10424805 140.74584961 C98.17554932 141.55803955 98.24685059 142.37022949 98.3203125 143.20703125 C98.37977051 143.91835205 98.43922852 144.62967285 98.50048828 145.36254883 C98.71872914 147.47147199 98.71872914 147.47147199 99.75 150.25 C100.01625204 152.67666078 100.24185269 155.0908687 100.43359375 157.5234375 C100.55792112 159.00390806 100.68227085 160.48437675 100.80664062 161.96484375 C100.99653114 164.27902804 101.18493558 166.59332587 101.37231445 168.90771484 C102.06850971 177.44463626 102.90381405 185.87767328 104.28833008 194.33691406 C104.97805725 198.68901592 105.44400378 203.05334996 105.875 207.4375 C105.96136719 208.24896484 106.04773438 209.06042969 106.13671875 209.89648438 C106.71715268 215.69621703 106.84727601 221.42347569 106.75 227.25 C102.64580545 224.96989192 98.68109272 222.56784382 94.75 220 C64.97111366 201.15209488 29.9464185 192.7947868 -5.125 192.875 C-5.98105835 192.87521149 -6.8371167 192.87542297 -7.71911621 192.87564087 C-21.88972923 192.91047148 -35.42098021 193.97443066 -49.25 197.25 C-50.57112793 197.55478271 -50.57112793 197.55478271 -51.91894531 197.86572266 C-60.98694956 199.99495017 -69.71262988 202.49122613 -78.25 206.25 C-79.12914062 206.58257812 -80.00828125 206.91515625 -80.9140625 207.2578125 C-93.34506957 212.04927884 -104.74945249 219.10671825 -115.25 227.25 C-115.91 227.25 -116.57 227.25 -117.25 227.25 C-110.97684528 162.28205699 -110.97684528 162.28205699 -107.68359375 134.86865234 C-107.23915064 131.1594543 -106.80602319 127.44906089 -106.375 123.73828125 C-106.10454061 121.42964366 -105.83372918 119.12104728 -105.5625 116.8125 C-105.44302002 115.78608398 -105.32354004 114.75966797 -105.20043945 113.70214844 C-105.08917725 112.77047852 -104.97791504 111.83880859 -104.86328125 110.87890625 C-104.76829346 110.07525635 -104.67330566 109.27160645 -104.57543945 108.44360352 C-104.25 106.25 -104.25 106.25 -103.72265625 104.14233398 C-103.02727064 101.35827723 -103.0465243 98.61578153 -102.9375 95.75 C-101.79319133 74.90723493 -98.09793798 54.96236109 -91.25 35.25 C-92.07242187 35.55550781 -92.89484375 35.86101562 -93.7421875 36.17578125 C-97.59638607 37.35607591 -101.39592738 37.90858705 -105.375 38.4375 C-117.5322976 40.20262267 -129.34439838 43.3575588 -141.21630859 46.46142578 C-143.61572555 47.08512744 -146.01705133 47.69113469 -148.42578125 48.27734375 C-179.47627591 56.04892085 -209.46518449 68.43016127 -238.25 82.25 C-239.65644775 82.91636475 -239.65644775 82.91636475 -241.09130859 83.59619141 C-264.63969336 94.78346228 -286.82900902 108.42622347 -308.25 123.25 C-308.91805664 123.71100098 -309.58611328 124.17200195 -310.27441406 124.64697266 C-326.78902462 136.09624917 -342.23734173 148.90879154 -357.25 162.25 C-358.32894531 163.20712891 -358.32894531 163.20712891 -359.4296875 164.18359375 C-378.16168358 180.84739562 -378.16168358 180.84739562 -395.34375 199.0625 C-397.55945648 201.60511399 -399.84098592 204.08110198 -402.125 206.5625 C-407.04577302 211.9649752 -411.6770049 217.55237581 -416.25 223.25 C-417.17389449 224.38198786 -418.0984029 225.51347487 -419.0234375 226.64453125 C-454.04744222 269.66453838 -486.03654341 320.70730689 -505.125 373 C-506.87207233 377.74150853 -508.70207743 382.37033866 -510.875 386.9375 C-513.14756568 391.77305509 -514.71043964 396.67893126 -516.16015625 401.81640625 C-517.03236345 404.56432787 -518.00108066 407.14153136 -519.09765625 409.80078125 C-521.6338193 416.04720268 -523.63786992 422.43630259 -525.625 428.875 C-525.81909454 429.50229004 -526.01318909 430.12958008 -526.21316528 430.77587891 C-531.00673619 446.31648891 -535.72163803 462.06567612 -537.78686523 478.23535156 C-538.23597728 481.15872294 -538.88536478 483.92426261 -539.64453125 486.78125 C-541.30841051 493.30835186 -542.57983491 499.86844042 -543.75 506.5 C-543.96430664 507.71365234 -544.17861328 508.92730469 -544.39941406 510.17773438 C-547.44057962 527.76420305 -549.61273306 545.26475254 -550.09228516 563.11376953 C-550.25 565.25 -550.25 565.25 -550.72973633 567.9921875 C-551.34082614 571.81873958 -551.58217928 575.62786413 -551.78515625 579.4921875 C-551.82813339 580.26055939 -551.87111053 581.02893127 -551.91539001 581.82058716 C-552.05085805 584.25523204 -552.18174921 586.69009769 -552.3125 589.125 C-552.40399376 590.78387091 -552.49578753 592.44272531 -552.58789062 594.1015625 C-552.81206517 598.15085882 -553.03213758 602.20035937 -553.25 606.25 C-554.57 605.92 -555.89 605.59 -557.25 605.25 C-557.91162993 587.91740738 -558.55350005 570.59793373 -558.25 553.25 C-558.23743164 552.40099121 -558.22486328 551.55198242 -558.21191406 550.67724609 C-556.70501505 468.70501505 -556.70501505 468.70501505 -548.25 460.25 C-547.87761282 457.92258011 -547.55163134 455.58764285 -547.25 453.25 C-546.36111111 446.36111111 -546.36111111 446.36111111 -545.25 445.25 C-544.89373872 443.0869851 -544.56742264 440.91905473 -544.25 438.75 C-540.01511786 412.98162562 -532.1341612 384.73950756 -521.06933594 361.12036133 C-520.11245275 359.05190955 -520.11245275 359.05190955 -519.3125 355.9375 C-517.75026075 350.51561086 -515.45775754 345.43566306 -513.25 340.25 C-512.91661621 339.42508057 -512.58323242 338.60016113 -512.23974609 337.75024414 C-508.68178203 329.00783931 -504.63803211 320.54025507 -500.5 312.0625 C-499.96726471 310.96808594 -499.96726471 310.96808594 -499.42376709 309.8515625 C-476.98979455 263.78912549 -449.39318211 219.32990385 -414.4453125 181.62890625 C-412.49762165 179.51833022 -410.61586777 177.37013136 -408.75 175.1875 C-405.14635982 171.02348515 -401.22852575 167.19581214 -397.2890625 163.3515625 C-395.20873909 161.41903954 -395.20873909 161.41903954 -394.25 159.25 C-393.59 159.25 -392.93 159.25 -392.25 159.25 C-391.92 158.26 -391.59 157.27 -391.25 156.25 C-389.71875 154.7421875 -389.71875 154.7421875 -387.75 153.125 C-384.59893765 150.45785079 -381.64410589 147.69435078 -378.75 144.75 C-374.74268951 140.70179859 -370.58889535 136.93693698 -366.25 133.25 C-365.32832031 132.45078125 -364.40664063 131.6515625 -363.45703125 130.828125 C-354.67603154 123.25329123 -345.52940404 116.20093705 -336.25 109.25 C-335.59708984 108.75967285 -334.94417969 108.2693457 -334.27148438 107.76416016 C-307.71760661 87.8758753 -279.23577437 70.76680835 -249.39013672 56.2890625 C-247.8534069 55.54296141 -246.31882183 54.79243672 -244.78564453 54.0390625 C-234.70958912 49.0919198 -224.68777341 44.40869114 -214.0859375 40.69921875 C-211.12442845 39.63828599 -208.34136482 38.34513738 -205.5078125 36.98046875 C-197.20530671 33.16125933 -188.45721126 30.59826541 -179.75 27.875 C-178.39488312 27.4479628 -178.39488312 27.4479628 -177.01239014 27.01229858 C-159.14782105 21.38951087 -141.20427842 15.94055454 -122.72827148 12.72338867 C-119.50244701 12.10720567 -116.39530043 11.18866968 -113.25 10.25 C-104.261523 8.1860558 -95.27465521 6.77497392 -86.12109375 5.71484375 C-82.64797227 5.2977888 -79.20556873 4.79032529 -75.75 4.25 C-69.41310621 3.33443059 -63.06661079 2.72996914 -56.6875 2.1875 C-55.77355469 2.10822266 -54.85960937 2.02894531 -53.91796875 1.94726562 C-35.97028961 0.48840373 -18.00126686 0.01557516 0 0 Z " fill="#E5A926" transform="translate(632.25,99.75)" data-index="1" style="opacity: 1;"></path>
<path d="M0 0 C2.72263787 0.0107373 5.44461816 0.00003979 8.16723633 -0.01269531 C17.39917054 -0.01974576 26.08141248 0.44961984 35.16137695 2.26074219 C36.58741602 2.44408339 38.01588364 2.60994984 39.4465332 2.75292969 C46.48532913 3.46627198 52.81568059 4.51432519 59.4074707 7.20605469 C62.5126811 8.3952842 65.62729273 9.18991013 68.84887695 10.01074219 C77.21253048 12.3573131 84.58112847 16.09859837 92.16137695 20.26074219 C92.79188965 20.60234375 93.42240234 20.94394531 94.07202148 21.29589844 C114.71901033 32.61167456 134.92864217 48.55295512 141.8996582 71.83886719 C143.05349091 75.87996061 144.13488474 79.93581302 145.19262695 84.00292969 C146.76914167 89.98755471 148.557753 95.89365477 150.38012695 101.80761719 C154.54401888 115.35102356 158.35618635 128.98803465 162.16137695 142.63574219 C163.17922501 146.27564476 164.19779177 149.91534552 165.21655273 153.55499268 C165.88328474 155.94054719 166.54834879 158.32656855 167.21166992 160.71307373 C168.86111472 166.64387047 170.53424904 172.56606124 172.25512695 178.4765625 C172.58633545 179.62524811 172.91754395 180.77393372 173.25878906 181.95742798 C173.8869503 184.13293088 174.5227893 186.30623638 175.16748047 188.47689819 C175.44519287 189.44406769 175.72290527 190.41123718 176.0090332 191.40771484 C176.25661377 192.25194 176.50419434 193.09616516 176.75927734 193.9659729 C177.18965548 196.4221268 176.95099336 197.9186432 176.16137695 200.26074219 C175.49493164 199.51050781 174.82848633 198.76027344 174.1418457 197.98730469 C150.95854166 172.12409577 121.13104619 154.03682085 88.16137695 143.26074219 C87.32219727 142.97714844 86.48301758 142.69355469 85.6184082 142.40136719 C84.19829992 141.92229451 82.77592114 141.44984301 81.3503418 140.98730469 C80.00238201 140.53988908 78.66003158 140.07454918 77.32861328 139.58007812 C70.6266484 137.15271309 63.71916276 135.84039353 56.73217773 134.52587891 C54.66412729 134.13626035 52.59826398 133.73635707 50.5324707 133.33496094 C39.97241481 131.31221585 29.91400614 130.10508348 19.16137695 130.09277344 C18.12682373 130.08944504 17.09227051 130.08611664 16.02636719 130.08268738 C13.84464966 130.07764851 11.66292451 130.07527811 9.48120117 130.07543945 C6.19867713 130.07326688 2.91649735 130.05511657 -0.3659668 130.03613281 C-15.70803463 129.99443372 -30.53504937 130.89311853 -45.58862305 134.01074219 C-46.41458984 134.18138184 -47.24055664 134.35202148 -48.09155273 134.52783203 C-85.14716225 142.44038491 -120.03524417 158.49350558 -148.83862305 183.26074219 C-150.02198242 184.24300781 -150.02198242 184.24300781 -151.22924805 185.24511719 C-156.86264406 190.03541992 -161.39914474 195.35756668 -165.83862305 201.26074219 C-166.99449327 197.79313153 -166.63903714 196.70801786 -165.6862793 193.25219727 C-165.40848633 192.2287471 -165.13069336 191.20529694 -164.84448242 190.15083313 C-164.53317383 189.03854843 -164.22186523 187.92626373 -163.90112305 186.78027344 C-163.58336914 185.62065598 -163.26561523 184.46103851 -162.93823242 183.26628113 C-161.9129026 179.53304937 -160.87570586 175.80322396 -159.83862305 172.07324219 C-159.16992266 169.64050047 -158.50194615 167.20755965 -157.8347168 164.77441406 C-154.15165602 151.38360252 -150.34619934 138.03246129 -146.43286133 124.70727539 C-144.98910241 119.78822944 -143.57501382 114.86134776 -142.1784668 109.92871094 C-141.97788666 109.2203157 -141.77730652 108.51192047 -141.57064819 107.78205872 C-141.17367531 106.37985524 -140.77671273 104.97764885 -140.37976074 103.57543945 C-138.55126709 97.13189439 -136.69791149 90.69545893 -134.83862305 84.26074219 C-134.37576904 82.65706787 -134.37576904 82.65706787 -133.90356445 81.02099609 C-129.28542095 65.18619218 -123.32423562 54.01700248 -111.83862305 42.26074219 C-111.24178711 41.60203125 -110.64495117 40.94332031 -110.0300293 40.26464844 C-102.69456386 32.3438092 -93.03136857 26.79663156 -83.71362305 21.51074219 C-83.09366455 21.15834473 -82.47370605 20.80594727 -81.83496094 20.44287109 C-72.34146008 15.18117503 -62.56360545 11.30288998 -52.21362305 8.07324219 C-51.1462793 7.73099609 -50.07893555 7.38875 -48.97924805 7.03613281 C-42.97844265 5.13784364 -37.02483596 3.42631641 -30.83862305 2.26074219 C-29.94071045 2.07777588 -29.04279785 1.89480957 -28.11767578 1.70629883 C-18.75237614 0.00589735 -9.48451591 -0.04446802 0 0 Z " fill="#E5A924" transform="translate(621.838623046875,312.7392578125)" data-index="2" style="opacity: 1;"></path>
<path d="M0 0 C2.35141862 0.01072038 4.70207102 0.00002684 7.0534668 -0.01269531 C20.46831848 -0.026329 34.12301684 0.60588757 47.04370117 4.51074219 C47.78322021 4.72690186 48.52273926 4.94306152 49.28466797 5.16577148 C74.82588235 12.84209275 93.05216166 25.848351 106.73120117 48.76074219 C119.37776436 72.75333546 119.82962025 99.75022882 112.02416992 125.20996094 C103.1264483 151.9196874 81.57999538 172.90960815 56.86914062 185.50244141 C29.97934712 198.56618063 -4.15813332 202.61937463 -32.85864258 193.05664062 C-39.12507704 190.81272846 -45.12368605 188.22627995 -51.08129883 185.26074219 C-52.07387695 184.77734375 -53.06645508 184.29394531 -54.08911133 183.79589844 C-71.59227782 174.79498234 -85.22959916 161.43956009 -96.08129883 145.26074219 C-96.75290039 144.27203125 -97.42450195 143.28332031 -98.11645508 142.26464844 C-107.56670834 127.28963174 -110.25914835 111.47305489 -110.26879883 94.07324219 C-110.28104492 92.93048828 -110.29329102 91.78773438 -110.3059082 90.61035156 C-110.32417306 79.84017379 -109.61012211 69.1655451 -105.08129883 59.26074219 C-104.64720703 58.2963623 -104.64720703 58.2963623 -104.2043457 57.3125 C-100.24028363 48.77419645 -95.88917801 40.70425322 -90.08129883 33.26074219 C-89.61336914 32.64070313 -89.14543945 32.02066406 -88.66333008 31.38183594 C-77.58592154 17.5118034 -61.18500582 10.05279038 -44.51879883 5.32324219 C-43.5274292 5.04085693 -42.53605957 4.75847168 -41.51464844 4.4675293 C-27.78671801 0.82186827 -14.1255132 -0.07621943 0 0 Z " fill="#E5A924" transform="translate(624.081298828125,459.7392578125)" data-index="3" style="opacity: 1;"></path>
<path d="M0 0 C0.99 0.495 0.99 0.495 2 1 C1.53851563 1.54785156 1.07703125 2.09570312 0.6015625 2.66015625 C-21.13563648 29.07987438 -36.97775974 61.01648083 -34 96 C-29.87925358 129.79272462 -12.36314543 158.98504808 14.13720703 180.00634766 C36.83793676 198.03704157 36.83793676 198.03704157 63 207 C61.43765625 206.23429687 61.43765625 206.23429687 59.84375 205.453125 C51.91963827 201.47150573 44.46998999 197.21484232 37.375 191.875 C36.73755859 191.39708008 36.10011719 190.91916016 35.44335938 190.42675781 C30.93778677 186.94690179 26.9594767 183.08174995 23 179 C22.195625 178.21625 21.39125 177.4325 20.5625 176.625 C6.18645992 161.8983248 -9.0374372 139.80149284 -9.1875 118.3125 C-9.14053279 116.8744087 -9.08412735 115.43639656 -9 114 C-6.09471013 116.62383991 -4.14774943 119.68034324 -2 122.9375 C5.47042208 133.94035125 14.37050438 142.97103606 25 151 C26.57007813 152.20076172 26.57007813 152.20076172 28.171875 153.42578125 C62.8150564 179.36258417 104.55184097 189.73219433 147.53125 184.2734375 C184.92774018 178.62171233 224.88324002 160.24271235 247.89453125 129.203125 C249.6015017 126.82973041 251.24840623 124.42236561 252.87890625 121.99609375 C254.74879735 119.35482953 256.63455874 117.19379927 259 115 C258.18087666 137.3620671 248.06991549 155.18586958 234 172 C233.33355469 172.81855469 232.66710937 173.63710938 231.98046875 174.48046875 C221.01334338 187.4578615 206.02469084 197.32205177 191 205 C212.75213956 198.41457832 231.88707181 184.73528144 248 169 C248.639375 168.41089844 249.27875 167.82179688 249.9375 167.21484375 C268.6295941 149.60446806 282.91867245 121.5085004 284.1081543 95.64868164 C284.3409282 85.29546848 284.55255621 75.09150128 282 65 C281.77828125 63.8553125 281.5565625 62.710625 281.328125 61.53125 C276.98813466 41.05959746 266.13294544 23.45593816 253.23632812 7.2734375 C251.31115646 4.8387513 249.99143521 2.97430562 249 0 C260.46328023 4.43410305 269.62608067 11.23777856 279 19 C279.79921875 19.65484375 280.5984375 20.3096875 281.421875 20.984375 C302.54324867 38.83111709 314.60281359 63.76903976 317 91 C318.9635546 123.49883229 304.33703313 153.93935963 283.3671875 177.86279297 C281.6971709 179.73525053 280.01106797 181.59091786 278.3125 183.4375 C277.80243408 183.99244141 277.29236816 184.54738281 276.7668457 185.11914062 C263.91877405 198.79420044 248.27867617 209.81913524 232 219 C230.73929688 219.73476563 230.73929688 219.73476563 229.453125 220.484375 C219.43339656 226.24038921 208.76616917 230.34023431 197.93920898 234.28222656 C196.66268007 234.75471744 195.39106878 235.24074947 194.12524414 235.74121094 C162.60069307 248.10819462 122.48616188 251.93739721 89.27001953 244.50048828 C86.67671668 243.9287233 84.07331998 243.4314421 81.46484375 242.93359375 C44.08682283 235.57370714 8.88382269 218.08872681 -19 192 C-20.01707031 191.04867187 -20.01707031 191.04867187 -21.0546875 190.078125 C-46.43799585 166.06936404 -66.33517496 135.55206234 -67.34912109 99.57421875 C-67.59680505 74.93667531 -59.3561034 51.54107904 -43 33 C-41.98679687 31.78957031 -41.98679687 31.78957031 -40.953125 30.5546875 C-30.4084149 18.27818195 -15.61816892 5.20605631 0 0 Z " fill="#E5A926" transform="translate(502,498)" data-index="4" style="opacity: 1;"></path>
<path d="M0 0 C2.4375 1.5625 2.4375 1.5625 4 4 C4.5859375 7.11914062 4.5859375 7.11914062 4 11 C1.77032384 14.22112287 -0.99070894 16.82816897 -3.8125 19.53125 C-5.01592041 20.72337097 -5.01592041 20.72337097 -6.24365234 21.9395752 C-8.81314483 24.47655665 -11.40613881 26.98796408 -14 29.5 C-15.7163888 31.18983836 -17.43125065 32.88122915 -19.14453125 34.57421875 C-25.70831491 41.03428359 -32.27253899 47.43024629 -39.24047852 53.45544434 C-41.47210002 55.4144222 -43.5741112 57.47725877 -45.65625 59.59375 C-46.84927734 60.79837891 -46.84927734 60.79837891 -48.06640625 62.02734375 C-48.86949219 62.84332031 -49.67257812 63.65929687 -50.5 64.5 C-59.45408897 73.59781432 -59.45408897 73.59781432 -63.9375 77.4375 C-69.06930101 81.84276487 -73.7547029 86.68662116 -78.5 91.5 C-83.89452733 96.97192371 -89.28171001 102.34250089 -95.11914062 107.34179688 C-98.40262558 110.23658268 -101.43671773 113.37594784 -104.5 116.5 C-108.84231819 120.88915859 -113.19070501 125.15199156 -117.9140625 129.1328125 C-121.50088803 132.34349153 -124.83290827 135.8139398 -128.21655273 139.23608398 C-131.70067178 142.74453559 -135.27139608 146.06183709 -139.04296875 149.26171875 C-142.36769147 152.21481578 -145.43446242 155.42755509 -148.55859375 158.58984375 C-151.27202727 161.26854532 -154.10777023 163.74608118 -157.00390625 166.22265625 C-159.98488181 168.87694956 -162.75287483 171.72988637 -165.53125 174.59375 C-168.22172169 177.21610849 -171.03097323 179.6598497 -173.86767578 182.12158203 C-177.3891506 185.22373766 -180.78348385 188.45766307 -184.1875 191.6875 C-185.67925762 193.09680934 -187.17144958 194.50565905 -188.6640625 195.9140625 C-189.3952832 196.6040332 -190.12650391 197.29400391 -190.87988281 198.00488281 C-197.78691923 204.50468723 -204.73520707 210.95602472 -211.91015625 217.16015625 C-215.1745227 220.03401905 -218.36238988 222.99123672 -221.56079102 225.93798828 C-225.11979644 229.21075422 -228.72540905 232.41850857 -232.3984375 235.5625 C-234.16538833 237.08963941 -234.16538833 237.08963941 -236.125 239.4375 C-238 241 -238 241 -241.125 241.375 C-244 241 -244 241 -246 239 C-246.5625 236.3125 -246.5625 236.3125 -246 233 C-244.54539746 231.16238081 -242.96918536 229.65302107 -241.21484375 228.1015625 C-239.30760772 226.2918747 -237.65747047 224.46425761 -235.95605469 222.46704102 C-231.68511777 217.56258875 -227.10762111 212.99992515 -222.48828125 208.42578125 C-221.59763474 207.53892136 -220.70698822 206.65206146 -219.78935242 205.73832703 C-216.96616154 202.92726966 -214.13984036 200.11938203 -211.3125 197.3125 C-207.57638347 193.60330758 -203.84390881 189.89049661 -200.11328125 186.17578125 C-198.83195061 184.90689812 -198.83195061 184.90689812 -197.5247345 183.61238098 C-196.72677963 182.81772934 -195.92882477 182.0230777 -195.10668945 181.2043457 C-194.40832474 180.5112178 -193.70996002 179.8180899 -192.99043274 179.10395813 C-190.92485814 176.98211709 -190.92485814 176.98211709 -188.96769714 174.43449402 C-187.22057566 172.27290284 -185.54136434 170.60656233 -183.41015625 168.84375 C-178.663006 164.77883149 -174.27756919 160.39178358 -169.87966919 155.95483398 C-168.40068091 154.46285757 -166.91839498 152.97422447 -165.43530273 151.48632812 C-162.28734751 148.32705235 -159.1433673 145.16383977 -156 142 C-152.35185217 138.32809211 -148.70200656 134.65790443 -145.04788208 130.99194336 C-143.60134931 129.53902092 -142.15790833 128.08307719 -140.71459961 126.62695312 C-136.1700873 122.06565931 -131.57488588 117.65331941 -126.68676758 113.46191406 C-124.54758528 111.60789414 -122.54626572 109.64356863 -120.5625 107.625 C-119.81226563 106.86703125 -119.06203125 106.1090625 -118.2890625 105.328125 C-117.53367187 104.55984375 -116.77828125 103.7915625 -116 103 C-111.14353654 98.06066174 -106.24978224 93.28848859 -100.99609375 88.7734375 C-97.33204512 85.51809879 -93.93294957 81.99548052 -90.5 78.5 C-85.77653144 73.69049376 -80.9993045 69.06306926 -75.88867188 64.66601562 C-72.95478963 62.07800988 -70.23281883 59.29695168 -67.5 56.5 C-63.45073088 52.39956998 -59.35369549 48.46850375 -54.95703125 44.73828125 C-51.63367918 41.78640166 -48.5681265 38.57507606 -45.4453125 35.4140625 C-42.70876521 32.71248706 -39.85020634 30.20921265 -36.9296875 27.7109375 C-34.16029838 25.25548723 -31.59964876 22.60903661 -29.00390625 19.97265625 C-26.42142594 17.43044853 -23.69335715 15.08664791 -20.9453125 12.7265625 C-18.98780162 10.98917332 -17.14697451 9.1787403 -15.3125 7.3125 C-7.00050735 -1.01825561 -7.00050735 -1.01825561 0 0 Z " fill="#E5A928" transform="translate(401,711)" data-index="5"></path>
<path d="M0 0 C3.6639003 1.08535646 5.66934842 3.64410787 8.171875 6.42578125 C10.08451778 8.5434832 12.06399731 10.36370768 14.23828125 12.20703125 C17.45020768 14.96816099 20.43190214 17.87808744 23.3984375 20.8984375 C25.24171699 22.70930768 27.15400924 24.39774479 29.11328125 26.08203125 C31.92154472 28.50070904 34.57548718 31.00352808 37.17578125 33.64453125 C39.69533514 36.20322384 42.25696907 38.62623736 44.98828125 40.95703125 C48.89206801 44.30861242 52.49195264 47.93079743 56.10205078 51.59033203 C59.36894571 54.88446054 62.75445676 57.95912399 66.28125 60.96875 C68.33380056 62.78430503 70.25324131 64.69212661 72.17578125 66.64453125 C74.6349022 69.1416309 77.12671911 71.50511267 79.80078125 73.76953125 C84.41770742 77.7295035 88.64875893 82.06314898 92.90087891 86.40673828 C95.86589418 89.41571728 98.87904611 92.29501724 102.08203125 95.05078125 C107.27407531 99.53254568 112.01746449 104.43779342 116.8203125 109.328125 C117.52542969 110.04097656 118.23054687 110.75382813 118.95703125 111.48828125 C119.57642578 112.11927734 120.19582031 112.75027344 120.83398438 113.40039062 C122.7748282 115.26029851 124.74971758 117.00849663 126.78857422 118.75732422 C131.96631416 123.26001278 136.76173212 128.12463113 141.58984375 132.99609375 C142.57264989 133.98331811 143.55575927 134.97024066 144.53915405 135.95687866 C147.6292195 139.05826094 150.71529715 142.16359196 153.80078125 145.26953125 C157.38792698 148.88039872 160.9767541 152.48956264 164.56983566 156.09452438 C165.99538602 157.52649216 167.41784983 158.96153056 168.84024048 160.39663696 C173.91797162 165.54282037 173.91797162 165.54282037 179.37255859 170.27490234 C182.36875781 172.8076588 184.77228805 175.54512391 187.31396484 178.52050781 C190.53168988 182.1913979 194.01830752 185.58903695 197.48828125 189.01953125 C198.26083252 189.7882959 199.03338379 190.55706055 199.8293457 191.34912109 C202.27572307 193.7833889 204.72532265 196.21437231 207.17578125 198.64453125 C210.40791813 201.84989303 213.6366066 205.05867198 216.86328125 208.26953125 C217.95733276 209.35113525 217.95733276 209.35113525 219.07348633 210.45458984 C223.11707615 214.47903344 226.97296762 218.59827872 230.67774963 222.93757629 C233.37670274 226.01293954 236.43521027 228.71282453 239.453125 231.46875 C241.17578125 233.64453125 241.17578125 233.64453125 241.5546875 236.2265625 C241.17578125 238.64453125 241.17578125 238.64453125 239.17578125 241.64453125 C236.32421875 242.0859375 236.32421875 242.0859375 233.17578125 241.64453125 C230.90234375 239.921875 230.90234375 239.921875 228.80078125 237.58203125 C226.07678058 234.66766781 223.39689896 231.86166614 220.36328125 229.26953125 C215.91092439 225.44814712 211.60970225 221.46934957 207.30078125 217.48828125 C204.9973626 215.37387644 202.65376562 213.31180874 200.29296875 211.26171875 C196.20122124 207.69480346 192.24336484 203.99977351 188.30078125 200.26953125 C183.78179077 196.00995168 179.24935784 191.77653213 174.61328125 187.64453125 C171.28246186 184.67515303 168.10746134 181.60677253 164.98388672 178.421875 C163.21188659 176.68002232 161.3837384 175.05335182 159.5 173.43359375 C155.10278083 169.6090028 150.84897696 165.64640122 146.61328125 161.64453125 C145.53916992 160.63519531 145.53916992 160.63519531 144.44335938 159.60546875 C140.48028419 155.86957622 136.58052507 152.08582183 132.7644043 148.19970703 C131.08762061 146.55822676 129.34171383 145.0349938 127.55078125 143.51953125 C123.73633597 140.23940515 120.21015527 136.71927505 116.67578125 133.14453125 C111.63728827 128.04870242 111.63728827 128.04870242 106.30078125 123.26953125 C103.58337646 120.92378408 100.9871333 118.51106253 98.4609375 115.9609375 C97.45232666 114.94749268 97.45232666 114.94749268 96.42333984 113.91357422 C95.06808547 112.54418588 93.71546731 111.17218263 92.36572266 109.79736328 C91.42672119 108.84579346 91.42672119 108.84579346 90.46875 107.875 C89.90696045 107.30160889 89.3451709 106.72821777 88.76635742 106.13745117 C87.04013848 104.4349521 87.04013848 104.4349521 84.17578125 102.64453125 C84.17578125 101.98453125 84.17578125 101.32453125 84.17578125 100.64453125 C83.60827148 100.40371826 83.04076172 100.16290527 82.45605469 99.91479492 C79.71577489 98.38827717 77.88538834 96.56252158 75.69140625 94.3203125 C74.41136719 93.02383789 74.41136719 93.02383789 73.10546875 91.70117188 C72.22117187 90.79560547 71.336875 89.89003906 70.42578125 88.95703125 C65.15999614 83.58577418 59.90548109 78.32666929 54.19042969 73.43432617 C49.30811148 69.09692012 44.82108943 64.32427455 40.2421875 59.671875 C36.74305386 56.13871413 33.26168732 52.65585714 29.46875 49.4375 C22.94584725 43.83877005 17.0295095 37.56361213 10.98828125 31.45703125 C8.49773355 28.93976844 6.0038037 26.4259266 3.5078125 23.9140625 C2.94624954 23.3442012 2.38468658 22.7743399 1.80610657 22.18721008 C-1.25849919 19.1036608 -4.42523419 16.36333592 -7.82421875 13.64453125 C-9.35268536 10.58759803 -9.0566432 8.01468578 -8.82421875 4.64453125 C-7.10386078 0.45115871 -4.45347484 -0.21982417 0 0 Z " fill="#E6AA28" transform="translate(858.82421875,710.35546875)" data-index="6"></path>
<path d="M0 0 C4.08493597 0.85102833 5.40930402 2.38457791 8 5.625 C8.48979628 8.39368837 8.67000742 10.54548399 8.62145996 13.30662537 C8.62785339 14.07437737 8.63424681 14.84212937 8.64083397 15.63314658 C8.65610796 18.20835457 8.63561642 20.78202322 8.61523438 23.35717773 C8.61866943 25.21090824 8.62425684 27.06463581 8.6318264 28.91835403 C8.64596821 33.98424174 8.62860847 39.04959583 8.60543585 44.1154325 C8.585742 49.49678191 8.59354196 54.87810138 8.59744263 60.25947571 C8.59995761 70.62141491 8.57379754 80.98309055 8.53623426 91.34495479 C8.50646061 99.65310407 8.4873152 107.96121676 8.47479248 116.26940918 C8.38885735 170.64627365 8.17248636 225.01723665 6.625 279.375 C6.59352875 280.51028515 6.5620575 281.6455703 6.52963257 282.81525803 C6.35308553 289.14871258 6.16296274 295.48144799 5.94680405 301.81368065 C5.88436999 303.64635295 5.82432005 305.47910838 5.76691055 307.31194496 C5.6888964 309.73158242 5.59811182 312.15034121 5.50244141 314.56933594 C5.48158226 315.26757697 5.46072311 315.965818 5.43923187 316.68521786 C5.2299894 321.3950106 5.2299894 321.3950106 3 323.625 C0 323.9375 0 323.9375 -3 323.625 C-5.19165527 320.3375171 -5.28085467 319.21092485 -5.39477539 315.3762207 C-5.43143814 314.29850906 -5.46810089 313.22079742 -5.50587463 312.11042786 C-5.53616257 310.93574448 -5.5664505 309.7610611 -5.59765625 308.55078125 C-5.63684677 307.321353 -5.67603729 306.09192474 -5.71641541 304.82524109 C-5.81979378 301.52831382 -5.91497316 298.23135479 -6.00616455 294.93408203 C-6.09712356 291.71040807 -6.19845137 288.48706434 -6.29882812 285.26367188 C-6.45675998 280.16433687 -6.60605035 275.06486152 -6.75035095 269.96511841 C-6.89431869 264.94097836 -7.0590275 259.9185464 -7.25453186 254.89608765 C-8.22412925 229.16266971 -8.22115147 203.42439769 -8.2734375 177.67578125 C-8.27881384 175.21547127 -8.2841913 172.75516128 -8.28956985 170.2948513 C-8.31107017 160.07588487 -8.32981431 149.8569197 -8.34119225 139.63793659 C-8.35752757 125.07974788 -8.39108147 110.52182997 -8.44759309 95.96374637 C-8.48621415 85.66162211 -8.505813 75.35956847 -8.51111281 65.0573737 C-8.51476404 58.92461106 -8.52677128 52.79213226 -8.55921555 46.65944862 C-8.58917354 40.91919142 -8.59565206 35.17939217 -8.58383179 29.43907356 C-8.58361034 27.33351689 -8.59197426 25.22793946 -8.60948563 23.1224556 C-8.63206273 20.25269499 -8.62393729 17.38461415 -8.60800171 14.5148468 C-8.6218838 13.67966642 -8.63576588 12.84448604 -8.65006864 11.98399717 C-8.59144233 7.71120931 -8.36681622 6.09575962 -5.64949989 2.60844707 C-3 0.625 -3 0.625 0 0 Z " fill="#E7AC2B" transform="translate(627,827.375)" data-index="7"></path>
<path d="M0 0 C2.9375 2.0625 2.9375 2.0625 5 5 C5.06970767 11.8923461 1.55026734 16.1271844 -2.4375 21.5 C-3.62586786 23.13384057 -4.81200374 24.7693065 -5.99609375 26.40625 C-6.63611328 27.29014404 -7.27613281 28.17403809 -7.93554688 29.0847168 C-10.63850597 32.9016556 -13.22648642 36.79063898 -15.80976868 40.688797 C-19.52477383 46.29470429 -23.27635995 51.87522391 -27.0390625 57.44921875 C-27.65550125 58.36273102 -28.27194 59.27624329 -28.90705872 60.21743774 C-30.81269764 63.04102253 -32.71878934 65.86430117 -34.625 68.6875 C-44.82562348 83.78957077 -44.82562348 83.78957077 -54.95605469 98.9387207 C-59.17263247 105.25401798 -63.42876356 111.542761 -67.68041992 117.83447266 C-69.3000631 120.23159302 -70.91861532 122.62944742 -72.53710938 125.02734375 C-81.82149081 138.77467205 -91.20290979 152.45248329 -100.6875 166.0625 C-101.3575708 167.02510742 -102.0276416 167.98771484 -102.71801758 168.97949219 C-106.18521893 173.96023464 -109.65473573 178.93936006 -113.125 183.91796875 C-114.47932752 185.86186711 -115.83349559 187.80587657 -117.1875 189.75 C-118.17979614 191.17469604 -118.17979614 191.17469604 -119.19213867 192.62817383 C-123.49434177 198.81328851 -127.75758205 205.02376674 -132 211.25 C-135.93387742 217.02004192 -139.92174777 222.73485322 -144.0625 228.359375 C-146.29885288 231.40730756 -148.49486042 234.48309613 -150.6875 237.5625 C-154.7801316 243.29996275 -158.8838635 249.02937422 -163 254.75 C-163.56420654 255.53705322 -164.12841309 256.32410645 -164.7097168 257.13500977 C-165.23863525 257.86905029 -165.76755371 258.60309082 -166.3125 259.359375 C-166.78300781 260.01389648 -167.25351562 260.66841797 -167.73828125 261.34277344 C-169 263 -169 263 -171 265 C-173.5 265.25 -173.5 265.25 -176 265 C-178 263 -178 263 -178.47265625 260.4609375 C-177.77637132 255.36252058 -175.22330419 251.88019109 -172.4375 247.625 C-171.23944348 245.74488078 -170.04153253 243.86466879 -168.84375 241.984375 C-168.21339844 241.00533203 -167.58304687 240.02628906 -166.93359375 239.01757812 C-164.36308692 235.00602959 -161.84635397 230.96206105 -159.32983398 226.91650391 C-156.23169754 221.93694207 -153.11551451 216.96870109 -150 212 C-149.46487793 211.14631836 -148.92975586 210.29263672 -148.37841797 209.41308594 C-147.87068848 208.60387695 -147.36295898 207.79466797 -146.83984375 206.9609375 C-146.1900354 205.92525635 -146.1900354 205.92525635 -145.52709961 204.86865234 C-141.07389275 197.81011875 -136.57982672 190.78009446 -132.02734375 183.78515625 C-131.46948685 182.9276326 -130.91162994 182.07010895 -130.33686829 181.18659973 C-123.81466683 171.16878079 -117.26067324 161.17193674 -110.6875 151.1875 C-110.05315033 150.22377472 -109.41880066 149.26004944 -108.76522827 148.26712036 C-101.14028162 136.69162155 -93.46535214 125.17010417 -85.48120117 113.83837891 C-80.54131147 106.82032871 -75.75050317 99.70930025 -71 92.5625 C-70.62430878 91.99747772 -70.24861755 91.43245544 -69.86154175 90.85031128 C-67.23760286 86.90247627 -64.61818369 82.95165341 -62 79 C-59.12772949 74.66485056 -56.25223337 70.33185738 -53.375 66 C-52.74851562 65.0519751 -52.12203125 64.1039502 -51.4765625 63.12719727 C-47.78055258 57.56294515 -43.9458861 52.12809831 -39.99560547 46.74169922 C-36.7143504 42.23368668 -33.54844803 37.64672402 -30.375 33.0625 C-28.98447363 31.06112939 -27.5938465 29.05982878 -26.203125 27.05859375 C-23.43766734 23.07507886 -20.67837991 19.08736959 -17.921875 15.09765625 C-16.65637945 13.2733477 -15.39076012 11.449125 -14.125 9.625 C-13.24207275 8.3412146 -13.24207275 8.3412146 -12.34130859 7.03149414 C-11.79812988 6.2502417 -11.25495117 5.46898926 -10.6953125 4.6640625 C-9.9839917 3.63466553 -9.9839917 3.63466553 -9.25830078 2.58447266 C-6.70297465 -0.63323526 -3.8811512 -0.45660602 0 0 Z " fill="#E5AA29" transform="translate(447,761)" data-index="8"></path>
<path d="M0 0 C4.91022932 3.1883536 7.65353317 7.5168828 10.8125 12.3125 C11.96637193 14.03197254 13.12136991 15.75068984 14.27734375 17.46875 C14.88304199 18.37238281 15.48874023 19.27601563 16.11279297 20.20703125 C19.31445455 24.94532471 22.59835817 29.62589961 25.875 34.3125 C33.02552013 44.56717501 40.08376639 54.88230898 47.11035156 65.22216797 C49.06772268 68.09955409 51.02934259 70.97400169 52.9921875 73.84765625 C53.65275146 74.81501709 54.31331543 75.78237793 54.99389648 76.77905273 C56.2377987 78.60045308 57.48206727 80.42160331 58.72680664 82.24243164 C61.79600478 86.73952474 64.83999741 91.25183775 67.85546875 95.78515625 C70.7031597 100.06506522 73.57120685 104.3304238 76.4609375 108.58203125 C76.84997757 109.15445053 77.23901764 109.72686981 77.6398468 110.31663513 C78.45738892 111.51940155 79.27495025 112.72215492 80.0925293 113.92489624 C101.86628418 145.97258472 123.41054257 178.17622728 144 211 C144.58007812 211.92296875 145.16015625 212.8459375 145.7578125 213.796875 C149.53959057 219.81553456 153.30273469 225.84540181 157.05371094 231.88330078 C159.05435338 235.08703905 161.07712922 238.2760966 163.1015625 241.46484375 C164.40163751 243.53868909 165.70113718 245.61289524 167 247.6875 C167.61794434 248.64946289 168.23588867 249.61142578 168.87255859 250.60253906 C169.43023926 251.50069336 169.98791992 252.39884766 170.5625 253.32421875 C171.05878906 254.10885498 171.55507813 254.89349121 172.06640625 255.7019043 C173.23892528 258.58812857 172.97490012 260.07438108 172 263 C170 265 170 265 167.58984375 265.390625 C165 265 165 265 163.25390625 263.296875 C162.41666016 262.03617188 162.41666016 262.03617188 161.5625 260.75 C160.87671875 259.74582031 160.1909375 258.74164062 159.484375 257.70703125 C159.09701172 257.12646973 158.70964844 256.5459082 158.31054688 255.94775391 C155.70225353 252.07127024 152.99571992 248.26229737 150.3125 244.4375 C149.71211914 243.57705078 149.11173828 242.71660156 148.49316406 241.83007812 C144.48889652 236.09509846 140.42425905 230.40828795 136.3125 224.75 C131.8577578 218.61438668 127.49903167 212.42438628 123.22265625 206.16333008 C119.6231737 200.89496137 115.97646323 195.66120624 112.3125 190.4375 C100.63536587 173.77795031 89.0158138 157.08290583 77.578125 140.2578125 C75.30480424 136.9137601 73.02465733 133.57464569 70.734375 130.2421875 C64.10588991 120.59603751 57.5778645 110.88800086 51.09985352 101.14013672 C45.8651746 93.27269075 40.56476667 85.45216911 35.22314453 77.65698242 C31.47842438 72.1884601 27.78664292 66.68725288 24.11572266 61.16894531 C20.33671675 55.50872184 16.51125912 49.88004473 12.6875 44.25 C12.27468781 43.64181427 11.86187561 43.03362854 11.43655396 42.40701294 C5.63105423 33.85432419 -0.19486331 25.31611805 -6.06640625 16.80859375 C-9.32666193 12.07299004 -10.61653733 9.85710459 -10 4 C-7.25657347 -0.1151398 -4.81370572 -0.78591114 0 0 Z " fill="#E6AA28" transform="translate(813,761)" data-index="9"></path>
<path d="M0 0 C4.22626836 3.13862577 4.73225426 6.17883734 5.5 11.25 C5.73925803 12.71423939 5.98285761 14.177775 6.23046875 15.640625 C6.35470215 16.37861328 6.47893555 17.11660156 6.60693359 17.87695312 C7.17846976 20.96395841 7.99439714 23.96998942 8.8125 27 C10.95883522 35.12052943 12.42619315 43.36847071 13.9375 51.625 C16.29684865 64.50068992 18.98325222 77.26147256 22 90 C24.43759229 100.30826879 26.45241457 110.53428775 27.92626953 121.02734375 C28.67248515 126.20922744 29.74211612 131.10266773 31.25 136.12109375 C32.64554673 141.47795802 33.38503831 146.96390405 34.2578125 152.42578125 C34.8972248 156.42252331 35.61642951 160.39889739 36.375 164.375 C38.02728625 173.05385093 39.57086948 181.7512667 41.11083984 190.45068359 C42.07626805 195.88887478 43.05646892 201.32294975 44.08778381 206.74908447 C45.8878407 216.22671796 47.4937967 225.73166501 49.0625 235.25 C49.32080717 236.80992173 49.57927033 238.36981765 49.83789062 239.9296875 C51.70955195 251.22503972 51.70955195 251.22503972 52.55371094 256.38378906 C53.34050698 261.1679418 54.1644639 265.93996978 55.0703125 270.703125 C55.24433594 271.6209375 55.41835938 272.53875 55.59765625 273.484375 C55.95236877 275.34464509 56.31182808 277.20401571 56.67578125 279.0625 C59.2589357 292.81342746 59.2589357 292.81342746 56.8125 297.0625 C54.26271335 298.38135516 52.68253902 297.7975116 50 297 C47.14803974 289.04933173 45.48997982 281.07581462 43.89453125 272.79492188 C42.85810878 267.58970455 41.64602489 262.78275597 39.66503906 257.86254883 C38.50603011 254.61655789 38.09988922 251.27649596 37.625 247.875 C36.24952956 238.85940777 34.26612771 230.03130184 32.18359375 221.15625 C31.18021058 216.87493207 30.30511009 212.57913784 29.4921875 208.2578125 C28.98761623 205.94319191 28.31486428 203.74516701 27.5625 201.5 C25.80000065 195.90985056 24.95249549 190.20405268 24.09008789 184.41992188 C23.42547074 180.07656153 22.41670016 176.17201466 21 172 C20.52143374 169.4992838 20.08543075 167.01293118 19.6875 164.5 C18.52602613 157.51717246 17.05081948 150.64166713 15.4375 143.75 C13.79572083 136.73413841 12.3513526 129.81082078 11.45703125 122.65625 C10.93698961 119.63378576 9.97707986 116.90562325 9 114 C8.46327205 111.63302976 7.96528262 109.25704473 7.5 106.875 C7.30881592 105.90300659 7.30881592 105.90300659 7.11376953 104.91137695 C6.10589356 99.7226586 5.23335517 94.51680862 4.4296875 89.29296875 C4.10524013 86.98146357 4.10524013 86.98146357 3 85 C2.47103722 81.53284902 2.0381359 78.05754409 1.59765625 74.578125 C1.11281726 71.0789816 1.11281726 71.0789816 0.03125 68.16015625 C-1.3591895 63.89930189 -1.92901678 59.61517904 -2.5625 55.1875 C-2.81009415 53.47211696 -3.06120351 51.75723635 -3.31640625 50.04296875 C-3.42412354 49.29039795 -3.53184082 48.53782715 -3.64282227 47.76245117 C-3.83488633 45.98092313 -3.83488633 45.98092313 -5 45 C-5.32097751 42.68182911 -5.51220956 40.36220643 -5.71875 38.03125 C-5.79065837 36.00819407 -5.79065837 36.00819407 -7 35 C-7.5407527 32.04349341 -8.03796861 29.09389475 -8.5 26.125 C-8.75816793 24.48141603 -9.01849896 22.83817002 -9.28125 21.1953125 C-9.45237305 20.09727295 -9.45237305 20.09727295 -9.62695312 18.97705078 C-9.99168475 16.80020801 -9.99168475 16.80020801 -11 14 C-11.46641558 9.41995192 -11.83587281 5.40426632 -9.4375 1.375 C-6.03897329 -0.54211763 -3.84031465 -0.54861638 0 0 Z " fill="#E6AC2B" transform="translate(702,819)" data-index="10"></path>
<path d="M0 0 C3.83787584 0.33085137 4.92013518 0.7207497 7.625 3.3125 C8.83895482 13.1795248 5.8466857 23.19473505 3.8125 32.8125 C3.09277519 36.25941577 2.37891697 39.70751402 1.66796875 43.15625 C1.40559669 44.4229805 1.40559669 44.4229805 1.13792419 45.71530151 C-0.20237824 52.26509096 -1.35571942 58.83510029 -2.39509583 65.43908691 C-3.17881888 70.3784346 -4.27317287 75.15508831 -5.5546875 79.984375 C-7.25500436 86.88280339 -8.5294314 93.87939952 -9.89282227 100.85083008 C-11.26694863 107.86618002 -12.69722796 114.86754458 -14.17602539 121.86157227 C-15.89786027 130.01370419 -17.57124089 138.15523758 -18.9375 146.375 C-20.02381404 152.87975891 -21.63487767 159.15312509 -23.40234375 165.50390625 C-24.9750965 171.66227544 -25.97416699 177.90590441 -27.01611328 184.171875 C-28.47197409 192.85554001 -29.95766052 201.41611826 -32.6875 209.8046875 C-33.81425904 213.91479717 -34.30775487 218.11051667 -34.84765625 222.33203125 C-35.375 225.3125 -35.375 225.3125 -36.33984375 227.67578125 C-37.75074706 231.26959158 -38.270281 234.88640916 -38.875 238.6875 C-39.7338971 244.02965119 -40.82146617 249.1164001 -42.375 254.3125 C-43.05398601 256.91439562 -43.72346322 259.51632754 -44.375 262.125 C-44.55160156 262.83076172 -44.72820312 263.53652344 -44.91015625 264.26367188 C-45.81834937 267.93344483 -46.66858569 271.5975176 -47.375 275.3125 C-48.24430581 279.84530886 -49.28758316 284.32789769 -50.375 288.8125 C-50.54128906 289.52019531 -50.70757812 290.22789062 -50.87890625 290.95703125 C-52.14215528 296.07965528 -52.14215528 296.07965528 -54.375 298.3125 C-58.93055556 297.75694444 -58.93055556 297.75694444 -60.375 296.3125 C-60.58452648 290.0451931 -60.13252871 284.07345939 -59.25 277.875 C-59.05857422 276.4988855 -59.05857422 276.4988855 -58.86328125 275.0949707 C-56.95302766 261.83828402 -54.50224525 248.66556227 -52.12719727 235.48608398 C-52.0035379 234.79980927 -51.87987854 234.11353455 -51.75247192 233.40646362 C-51.49889351 231.99977895 -51.24504426 230.59314307 -50.99093628 229.18655396 C-49.26332925 219.60400069 -47.68736081 210.01213383 -46.24069214 200.38317871 C-44.51793371 188.97257022 -42.54184036 177.70216907 -39.87207031 166.47119141 C-38.8994034 162.24706526 -38.04483645 157.99876083 -37.1875 153.75 C-37.02048584 152.94014648 -36.85347168 152.13029297 -36.68139648 151.29589844 C-35.74425526 146.62900269 -35.05798105 142.007726 -34.62158203 137.2668457 C-34.375 135.3125 -34.375 135.3125 -33.4375 132.0625 C-32.50633211 128.77602509 -31.96873077 125.74737267 -31.5 122.375 C-30.74803363 117.15936125 -29.64525839 112.1509429 -28.3125 107.0625 C-27.04627678 102.21605913 -25.98931769 97.50712758 -25.59936523 92.50537109 C-24.57927328 82.53533195 -21.66286715 72.66690273 -19.40673828 62.91308594 C-17.63833182 55.25679524 -16.04286234 47.61954559 -14.82250977 39.85449219 C-14.24921104 36.59798029 -13.28534932 33.48979762 -12.375 30.3125 C-11.46698777 25.42151184 -10.71531009 20.50298324 -9.96289062 15.5859375 C-7.52990247 0.69721319 -7.52990247 0.69721319 0 0 Z " fill="#E5AA2A" transform="translate(555.375,818.6875)" data-index="11"></path>
<path d="M0 0 C2.63714332 0.08630651 4.16142641 0.32798122 6.625 1.375 C8.125 3.3125 8.125 3.3125 8.625 6.4375 C8.20611995 9.6838204 7.80204195 11.35133374 6.48046875 14.1953125 C6.11808105 14.98599121 5.75569336 15.77666992 5.38232422 16.59130859 C4.96740723 17.48930176 4.55249023 18.38729492 4.125 19.3125 C3.15043869 21.47310005 2.17793196 23.63462753 1.20703125 25.796875 C0.67972412 26.96814941 0.15241699 28.13942383 -0.39086914 29.34619141 C-5.18969103 40.01161869 -9.93521583 50.6939198 -14.50854492 61.45849609 C-17.39400474 68.2332789 -20.37288707 74.96368523 -23.375 81.6875 C-28.29107941 92.70263012 -33.12758964 103.75065514 -37.9375 114.8125 C-44.49856651 129.89913243 -51.12174357 144.95737019 -57.7802124 160.00125122 C-62.61699776 170.92964718 -67.4394522 181.86380224 -72.21908569 192.81732178 C-84.34193196 220.59674263 -96.69795848 248.26448217 -109.34936523 275.80732727 C-111.8728655 281.30228094 -114.37878924 286.80510298 -116.875 292.3125 C-118.87454746 292.35504356 -120.87541636 292.35330783 -122.875 292.3125 C-123.205 291.9825 -123.535 291.6525 -123.875 291.3125 C-123.45811217 285.17762147 -121.91819533 280.05589227 -119.68359375 274.359375 C-119.35110123 273.49139786 -119.0186087 272.62342072 -118.67604065 271.72914124 C-117.56438009 268.83648722 -116.4389096 265.94943977 -115.3125 263.0625 C-114.51204053 260.99321002 -113.7119189 258.92378933 -112.91210938 256.85424805 C-85.79892013 186.8952438 -57.37190838 117.40967443 -26.980896 48.81005859 C-25.85263039 46.26198041 -24.72612136 43.71313213 -23.60009766 41.1640625 C-21.75205257 36.98082059 -19.90161821 32.7986452 -18.04891968 28.61746216 C-17.36000569 27.06255015 -16.67153542 25.50744146 -15.98355103 23.95211792 C-5.58147086 0.45011862 -5.58147086 0.45011862 0 0 Z " fill="#E5AA2A" transform="translate(489.875,792.6875)" data-index="12"></path>
<path d="M0 0 C3.29261497 0.90373117 4.16885857 2.72182127 6.03515625 5.55859375 C7.79812475 8.93579109 9.35786146 12.39287774 10.91015625 15.87109375 C11.38211426 16.91507324 11.85407227 17.95905273 12.34033203 19.03466797 C18.10334112 31.83575424 23.71195094 44.70601375 29.30615234 57.58154297 C30.91559816 61.28556355 32.53167826 64.98666529 34.1484375 68.6875 C49.59264248 104.10499511 64.53516534 139.74452659 79.03515625 175.55859375 C79.44721313 176.57606689 79.85927002 177.59354004 80.28381348 178.6418457 C92.43270482 208.65941559 104.30923627 238.76004629 115.60647583 269.10914612 C117.43898217 274.01884515 119.34056339 278.89071341 121.38891602 283.71533203 C122.32737152 286.39207515 122.39324386 288.76551041 122.03515625 291.55859375 C121.03515625 292.55859375 121.03515625 292.55859375 118.66015625 292.93359375 C117.79390625 292.80984375 116.92765625 292.68609375 116.03515625 292.55859375 C113.89033245 289.42438238 112.26952441 286.0904793 110.6796875 282.6484375 C110.23093262 281.6783374 109.78217773 280.7082373 109.31982422 279.70874023 C108.83400879 278.64856689 108.34819336 277.58839355 107.84765625 276.49609375 C107.32574707 275.36051025 106.80383789 274.22492676 106.26611328 273.05493164 C95.21252934 248.94431699 84.60873084 224.62767099 73.96069336 200.33618164 C68.88663774 188.76257389 63.78680027 177.20061411 58.67248535 165.64474487 C51.52554672 149.49541939 44.4296033 133.32495751 37.38305664 117.1315918 C30.39694129 101.07870062 23.3645273 85.0462901 16.31594849 69.02073669 C14.13995442 64.07322319 11.96704138 59.12437359 9.796875 54.17430115 C8.42959394 51.0567935 7.06018249 47.94022486 5.69024658 44.82388306 C5.05668588 43.38153634 4.42396303 41.93882123 3.79217529 40.49569702 C0.71031912 33.45770888 -2.41134783 26.4623229 -5.9230957 19.62548828 C-8.85478508 13.80882968 -10.80774423 9.14038117 -8.96484375 2.55859375 C-5.77392735 0.43131615 -3.76324601 0.22477963 0 0 Z " fill="#E7AA29" transform="translate(765.96484375,792.44140625)" data-index="13"></path>
<path d="M0 0 C4.01566345 1.74916112 7.73280365 3.96104659 11.5 6.1875 C13.1555188 7.14100342 13.1555188 7.14100342 14.84448242 8.11376953 C17.13049429 9.43046794 19.4132819 10.7527795 21.69287109 12.08056641 C25.62478417 14.3626202 29.5828128 16.59527854 33.54663086 18.82128906 C70.36861768 39.50582646 106.74159048 60.90858441 142.82461548 82.85395813 C146.56725074 85.12994791 150.31219695 87.4020832 154.05859375 89.671875 C175.21610189 102.50081597 196.15325187 115.67298669 217 129 C217.75716309 129.4832373 218.51432617 129.96647461 219.29443359 130.46435547 C221.3014535 131.74551909 223.30728691 133.02851083 225.3125 134.3125 C226.40175781 135.00988281 227.49101563 135.70726562 228.61328125 136.42578125 C231 138 231 138 232 139 C232.1875 141.4375 232.1875 141.4375 232 144 C230 146 230 146 227.24389648 146.30151367 C223.53588315 145.95686127 221.35492392 144.96170159 218.09765625 143.17578125 C216.97238525 142.56613525 215.84711426 141.95648926 214.68774414 141.32836914 C213.47912666 140.65677754 212.27071711 139.98481161 211.0625 139.3125 C209.80055398 138.62204142 208.53809551 137.9325187 207.27514648 137.24389648 C198.73617804 132.57353944 190.25089782 127.80412402 181.79492188 122.98535156 C174.71037256 118.9485783 167.57693994 115.00589427 160.42767334 111.08551025 C149.68285097 105.19219019 139.03826732 99.16148835 128.47607422 92.94433594 C122.26679385 89.29723377 116.0103476 85.75874509 109.6875 82.3125 C99.10286939 76.5419162 88.68904651 70.49760154 78.28369141 64.41113281 C75.37697763 62.71098895 72.46986138 61.01153618 69.5625 59.3125 C68.57032471 58.73242188 67.57814941 58.15234375 66.5559082 57.5546875 C58.54561163 52.88047972 50.4962507 48.27736071 42.4375 43.6875 C34.17133659 38.97826329 25.93315379 34.23698884 17.8046875 29.29296875 C14.66290624 27.38639531 11.49399144 25.52873988 8.3203125 23.67578125 C6.81766846 22.79635864 6.81766846 22.79635864 5.28466797 21.89916992 C3.29881653 20.73817375 1.31093434 19.58064247 -0.67919922 18.42700195 C-1.58428223 17.89679443 -2.48936523 17.36658691 -3.421875 16.8203125 C-4.23237305 16.34867676 -5.04287109 15.87704102 -5.87792969 15.39111328 C-10.72898378 12.21102743 -10.72898378 12.21102743 -11.43359375 9.0625 C-11.4439994 3.56831923 -11.4439994 3.56831923 -9.4375 1 C-6.12248164 -0.36000753 -3.48666564 -0.66342146 0 0 Z " fill="#E6AB2A" transform="translate(905,646)" data-index="14"></path>
<path d="M0 0 C2.4375 1 2.4375 1 4 3 C4.96161515 7.88821037 4.96161515 7.88821037 4 11 C-1.34646296 16.62868914 -9.3219922 20.2227674 -16 24 C-17.7438322 24.99575595 -19.48765737 25.99152463 -21.23092651 26.98826599 C-22.41768183 27.66659678 -23.60479691 28.34429855 -24.79226685 29.02137756 C-30.51172794 32.28396062 -36.1944031 35.60789038 -41.875 38.9375 C-51.14406729 44.35984282 -60.45675225 49.70298508 -69.78744507 55.01821899 C-77.95107171 59.66943986 -86.08280607 64.37161975 -94.1875 69.125 C-103.1845533 74.3968271 -112.25057593 79.53214748 -121.35961914 84.60766602 C-129.31087456 89.04174727 -137.22498777 93.53806291 -145.125 98.0625 C-163.72275333 108.70788227 -182.3573828 119.26186356 -201.19580078 129.4765625 C-204.15304103 131.08314261 -207.10626819 132.69690743 -210.05859375 134.3125 C-211.0530249 134.85640381 -212.04745605 135.40030762 -213.07202148 135.96069336 C-214.97163271 136.99991201 -216.87090467 138.03975116 -218.76977539 139.08032227 C-232.56130334 146.61648565 -232.56130334 146.61648565 -237 146 C-239 144 -239 144 -239.36328125 141.56640625 C-239 139 -239 139 -237.48046875 137.40234375 C-236.34544922 136.67724609 -236.34544922 136.67724609 -235.1875 135.9375 C-233.81464844 135.04417969 -233.81464844 135.04417969 -232.4140625 134.1328125 C-231.27638108 133.42133198 -230.13832591 132.71044892 -229 132 C-227.5905105 131.10255955 -226.18170316 130.20404719 -224.7734375 129.3046875 C-220.70179108 126.71316984 -216.61463213 124.14703462 -212.52441406 121.58496094 C-210.07185599 120.045115 -207.62472501 118.497067 -205.1796875 116.9453125 C-196.79018457 111.62198444 -188.36903942 106.3588814 -179.87915039 101.19702148 C-176.0163615 98.8474387 -172.16305138 96.48468696 -168.328125 94.08984375 C-156.34716161 86.61104362 -144.24498088 79.35383027 -132.08959961 72.16357422 C-130.7120557 71.34866851 -129.3345328 70.5337273 -127.95703125 69.71875 C-127.28008713 69.31826447 -126.60314301 68.91777893 -125.90568542 68.50515747 C-120.59459639 65.35976185 -115.30600777 62.17861263 -110.0222168 58.98754883 C-100.29349784 53.11335833 -90.49705019 47.39321477 -80.58276367 41.83789062 C-73.75852579 38.01075662 -66.99543067 34.08915248 -60.25 30.125 C-50.38587029 24.33608477 -40.42760142 18.73123804 -30.40820312 13.21704102 C-25.71072827 10.63020016 -21.02181046 8.0479456 -16.4296875 5.27734375 C-15.46893311 4.70185791 -15.46893311 4.70185791 -14.48876953 4.11474609 C-12.91696953 3.16354447 -11.35621472 2.19414965 -9.796875 1.22265625 C-6.33847891 -0.2891845 -3.73803585 -0.2882234 0 0 Z " fill="#E6AA2A" transform="translate(357,646)" data-index="15"></path>
<path d="M0 0 C0.33 0 0.66 0 1 0 C1.66 7.59 2.32 15.18 3 23 C3.99 23 4.98 23 6 23 C6.1176305 33.06394247 5.87801178 42.96557967 5 53 C3.68 52.67 2.36 52.34 1 52 C0.33809788 34.66027688 -0.16237009 17.35555901 0 0 Z " fill="#ECBA4F" transform="translate(74,653)" data-index="16"></path>

<path d="M0 0 C3.23352675 1.4558914 6.06414886 3.36634677 8.97631836 5.37744141 C16.67997323 10.69283449 24.51409032 15.05124079 33 19 C30.26891418 20.08301679 29.13407987 20.04695233 26.31445312 19.05957031 C25.31349609 18.57069336 24.31253906 18.08181641 23.28125 17.578125 C21.63576172 16.78148437 21.63576172 16.78148437 19.95703125 15.96875 C18.81621094 15.4015625 17.67539062 14.834375 16.5 14.25 C15.35917969 13.69828125 14.21835937 13.1465625 13.04296875 12.578125 C2.96305092 7.65069161 2.96305092 7.65069161 0 5 C-0.25 2.3125 -0.25 2.3125 0 0 Z " fill="#FDF6E9" transform="translate(534,686)" data-index="18"></path>
<path d="M0 0 C0.66 0 1.32 0 2 0 C2 8.25 2 16.5 2 25 C1.01 25 0.02 25 -1 25 C-1.02718316 22.14576808 -1.04692705 19.29179985 -1.0625 16.4375 C-1.07087891 15.63763672 -1.07925781 14.83777344 -1.08789062 14.01367188 C-1.10742247 9.22836896 -0.80437018 4.71854949 0 0 Z " fill="#E9B23E" transform="translate(1175,667)" data-index="19"></path>
<path d="M0 0 C2.13671875 0.171875 2.13671875 0.171875 4.6875 0.75 C6.01974609 1.04777344 6.01974609 1.04777344 7.37890625 1.3515625 C10.61640221 2.15249295 13.80940113 3.02894817 17 4 C17 4.66 17 5.32 17 6 C18.32 6.33 19.64 6.66 21 7 C18.26550363 8.36724819 17.11398588 7.64208017 14.2109375 6.78515625 C13.26992188 6.51123047 12.32890625 6.23730469 11.359375 5.95507812 C10.37453125 5.66052734 9.3896875 5.36597656 8.375 5.0625 C6.88613281 4.62647461 6.88613281 4.62647461 5.3671875 4.18164062 C2.90948137 3.46087104 0.45395896 2.733407 -2 2 C-1.34 1.34 -0.68 0.68 0 0 Z " fill="#E9B747" transform="translate(765,144)" data-index="20"></path>
<path d="M0 0 C0.66 0.66 1.32 1.32 2 2 C-2.29 6.29 -6.58 10.58 -11 15 C-11.99 14.67 -12.98 14.34 -14 14 C-9.38 9.38 -4.76 4.76 0 0 Z " fill="#E6AF34" transform="translate(181,917)" data-index="21"></path>

<path d="M0 0 C0.66 0.66 1.32 1.32 2 2 C-1.61251516 6.56048012 -4.98797445 10.01665146 -10 13 C-10 10 -10 10 -7.8125 7.51953125 C-6.884375 6.62621094 -5.95625 5.73289062 -5 4.8125 C-4.071875 3.91144531 -3.14375 3.01039063 -2.1875 2.08203125 C-1.1046875 1.05142578 -1.1046875 1.05142578 0 0 Z " fill="#E5AE34" transform="translate(757,660)" data-index="23"></path>
<path d="M0 0 C3.7910119 1.44950455 7.3874638 3.15172566 11 5 C10.01 5.495 10.01 5.495 9 6 C9 6.66 9 7.32 9 8 C8.01 8.33 7.02 8.66 6 9 C4.99406757 7.8803014 3.9954151 6.7540588 3 5.625 C2.443125 4.99851562 1.88625 4.37203125 1.3125 3.7265625 C0 2 0 2 0 0 Z " fill="#E7AC36" transform="translate(751,498)" data-index="24"></path>
<path d="M0 0 C0.33 0 0.66 0 1 0 C1.38133299 1.9914056 1.71325582 3.99279077 2 6 C1.67 6.33 1.34 6.66 1 7 C0.07056411 12.29434221 -0.28218863 17.57482179 -0.5625 22.9375 C-0.60568359 23.71673828 -0.64886719 24.49597656 -0.69335938 25.29882812 C-0.79828077 27.19907117 -0.8995245 29.09951669 -1 31 C-1.33 31 -1.66 31 -2 31 C-2.1982842 20.46890579 -2.31290989 10.34614155 0 0 Z " fill="#F4DBA5" transform="translate(469,563)" data-index="25"></path>
<path d="M0 0 C4.16776316 4.08717105 4.16776316 4.08717105 5 7 C3.625 10.25 3.625 10.25 2 13 C-0.20914 9.68629 -0.22481553 8.6553979 -0.125 4.8125 C-0.10695313 3.91144531 -0.08890625 3.01039063 -0.0703125 2.08203125 C-0.04710937 1.39496094 -0.02390625 0.70789063 0 0 Z " fill="#EBB242" transform="translate(493,612)" data-index="26"></path>
<path d="M0 0 C0.33 0.66 0.66 1.32 1 2 C-0.258125 2.28875 -1.51625 2.5775 -2.8125 2.875 C-5.8539399 3.57303539 -7.30669878 4.20446585 -10 6 C-12.6875 5.625 -12.6875 5.625 -15 5 C-13.66666667 4.33333333 -12.33333333 3.66666667 -11 3 C-10.030625 2.46375 -9.06125 1.9275 -8.0625 1.375 C-5.02682825 0.01204533 -3.26769974 -0.28832645 0 0 Z " fill="#E6B33B" transform="translate(438,134)" data-index="27"></path>
<path d="M0 0 C0.66 0.33 1.32 0.66 2 1 C-2.66666667 5.66666667 -7.33333333 10.33333333 -12 15 C-12 12 -12 12 -9.375 9.08203125 C-8.25750594 7.98449244 -7.13214357 6.89492105 -6 5.8125 C-5.42765625 5.25369141 -4.8553125 4.69488281 -4.265625 4.11914062 C-2.85037212 2.73926907 -1.42602845 1.36873266 0 0 Z " fill="#FBF2DC" transform="translate(338,786)" data-index="28"></path>
<path d="M0 0 C0.33 0 0.66 0 1 0 C0.67 3.96 0.34 7.92 0 12 C-0.99 11.01 -1.98 10.02 -3 9 C-3.66 9 -4.32 9 -5 9 C-3.75471468 5.55151758 -2.38532951 2.80016942 0 0 Z " fill="#E7AD34" transform="translate(760,613)" data-index="29"></path>
<path d="M0 0 C1.875 1.5 1.875 1.5 3 3 C0.47524538 4.26237731 -1.31200466 4.09856404 -4.125 4.0625 C-5.03507812 4.05347656 -5.94515625 4.04445313 -6.8828125 4.03515625 C-7.58148438 4.02355469 -8.28015625 4.01195312 -9 4 C-8.67 3.01 -8.34 2.02 -8 1 C-5.20129973 -0.39935013 -3.09501208 -0.25265405 0 0 Z " fill="#E6AF38" transform="translate(447,761)" data-index="30"></path>
<path d="M0 0 C-1.65 1.98 -3.3 3.96 -5 6 C-5.33 5.34 -5.66 4.68 -6 4 C-7.98 4.33 -9.96 4.66 -12 5 C-3.89473684 -1.94736842 -3.89473684 -1.94736842 0 0 Z " fill="#E8B34A" transform="translate(504,499)" data-index="31"></path>
<path d="M0 0 C4.9723422 1.49170266 9.41845739 3.60457417 14 6 C11.19966161 7.11346788 10.09856297 7.03510273 7.203125 6.00390625 C6.22859375 5.52824219 5.2540625 5.05257812 4.25 4.5625 C3.26515625 4.08941406 2.2803125 3.61632812 1.265625 3.12890625 C0.51796875 2.75636719 -0.2296875 2.38382813 -1 2 C-0.67 1.34 -0.34 0.68 0 0 Z " fill="#F8E6C2" transform="translate(553,699)" data-index="32"></path>
<path d="M0 0 C4.21912747 0.4794463 6.79663178 1.16625119 10 4 C8.02 4 6.04 4 4 4 C3.34 5.32 2.68 6.64 2 8 C0.23537317 4.91190305 0 3.76687864 0 0 Z " fill="#FBF5E6" transform="translate(714,135)" data-index="33"></path>
<path d="M0 0 C0.33 0 0.66 0 1 0 C1.93525779 6.28139352 2.07620213 10.88673818 0 17 C-0.36950465 19.32787927 -0.71352467 21.66045145 -1 24 C-1.33 24 -1.66 24 -2 24 C-2.10103455 18.39258264 -1.76082036 13.05193239 -1 7.5 C-0.90460937 6.77296875 -0.80921875 6.0459375 -0.7109375 5.296875 C-0.47853833 3.53064133 -0.23993362 1.76522594 0 0 Z " fill="#EFD087" transform="translate(526,222)" data-index="34"></path>
<path d="M0 0 C2.75 -0.25 2.75 -0.25 6 0 C8.375 2 8.375 2 10 4 C6.7 3.67 3.4 3.34 0 3 C0 2.01 0 1.02 0 0 Z " fill="#E7B038" transform="translate(807,761)" data-index="35"></path>
<path d="M0 0 C0.66 0.33 1.32 0.66 2 1 C0.90653119 2.34212062 -0.2001575 3.67347975 -1.3125 5 C-2.23482422 6.11375 -2.23482422 6.11375 -3.17578125 7.25 C-5 9 -5 9 -8 9 C-7.04270084 7.87411986 -6.08412105 6.7493285 -5.125 5.625 C-4.59132813 4.99851562 -4.05765625 4.37203125 -3.5078125 3.7265625 C-2.38567993 2.44163349 -1.20628025 1.20628025 0 0 Z " fill="#E6B035" transform="translate(374,729)" data-index="36"></path>
<path d="M0 0 C0.33 0 0.66 0 1 0 C1.33 1.65 1.66 3.3 2 5 C2.33 5 2.66 5 3 5 C3 6.98 3 8.96 3 11 C2.01 11.33 1.02 11.66 0 12 C-0.33 13.32 -0.66 14.64 -1 16 C-0.67 10.72 -0.34 5.44 0 0 Z " fill="#EBC062" transform="translate(521,266)" data-index="37"></path>
<path d="M0 0 C-1.55500981 3.81684226 -4.03595495 6.19195732 -7 9 C-7.99 8.67 -8.98 8.34 -10 8 C-8.71451591 6.66070495 -7.42141845 5.32871357 -6.125 4 C-5.04605469 2.88625 -5.04605469 2.88625 -3.9453125 1.75 C-2 0 -2 0 0 0 Z " fill="#E6B037" transform="translate(321,781)" data-index="38"></path>

<path d="M0 0 C0.3449145 1.33038449 0.67516582 2.66457061 1 4 C1.28875 4.804375 1.5775 5.60875 1.875 6.4375 C2 9 2 9 -0.4375 11.8125 C-1.283125 12.534375 -2.12875 13.25625 -3 14 C-2.69024532 12.22868439 -2.37709575 10.45796222 -2.0625 8.6875 C-1.88847656 7.70136719 -1.71445312 6.71523438 -1.53515625 5.69921875 C-1 3 -1 3 0 0 Z " fill="#ECC059" transform="translate(458,500)" data-index="40"></path>
<path d="M0 0 C0.66 0.66 1.32 1.32 2 2 C-0.94802633 5.71232945 -3.95715225 9.36548742 -7 13 C-7 9.16235973 -5.73464665 7.88513915 -3.5 4.8125 C-2.8503125 3.91144531 -2.200625 3.01039063 -1.53125 2.08203125 C-1.0259375 1.39496094 -0.520625 0.70789063 0 0 Z " fill="#FAF1DB" transform="translate(295,999)" data-index="41"></path>
<path d="M0 0 C-1.9626228 2.04795423 -3.4277307 2.94976638 -6.26953125 3.19921875 C-8.51954383 3.18858877 -10.75385562 3.12958525 -13 3 C-8.8341563 0.22277086 -4.9360889 -1.89849573 0 0 Z " fill="#E6B544" transform="translate(689,674)" data-index="42"></path>
<path d="M0 0 C4.79280002 0.80904103 6.13520113 3.25984591 9 7 C7.68 7 6.36 7 5 7 C3.515625 5.46875 3.515625 5.46875 2.25 3.5 C1.82203125 2.8503125 1.3940625 2.200625 0.953125 1.53125 C0.48132813 0.77328125 0.48132813 0.77328125 0 0 Z " fill="#E6B03C" transform="translate(709,484)" data-index="43"></path>
<path d="M0 0 C4.12751449 0.60698743 7.3321148 2.03810791 11 4 C11 4.66 11 5.32 11 6 C9.5410574 5.52269162 8.08286504 5.04308958 6.625 4.5625 C5.81289063 4.29566406 5.00078125 4.02882812 4.1640625 3.75390625 C2 3 2 3 0 2 C0 1.34 0 0.68 0 0 Z " fill="#E8B137" transform="translate(830,166)" data-index="44"></path>
<path d="M0 0 C0.33 0.99 0.66 1.98 1 3 C-2.19990508 5.74277578 -5.00499382 7.6302836 -9 9 C-6 6 -3 3 0 0 Z " fill="#E5B23C" transform="translate(476,514)" data-index="45"></path>
<path d="M0 0 C2.12046792 3.53411321 2.53199289 6.94393835 3 11 C1.35 9.35 -0.3 7.7 -2 6 C-1.34 4.02 -0.68 2.04 0 0 Z " fill="#EBB753" transform="translate(796,502)" data-index="46"></path>
<path d="M0 0 C0.66 0.66 1.32 1.32 2 2 C-1.75 6.875 -1.75 6.875 -4 8 C-4.25 5.6875 -4.25 5.6875 -4 3 C-2 1.1875 -2 1.1875 0 0 Z " fill="#EAB239" transform="translate(122,782)" data-index="47"></path>
<path d="M0 0 C0.33 0 0.66 0 1 0 C1.33 2.31 1.66 4.62 2 7 C1.34 7 0.68 7 0 7 C-0.33 9.31 -0.66 11.62 -1 14 C-2.13732426 10.59598052 -1.83989957 8.22543336 -1.0625 4.75 C-0.86785156 3.85796875 -0.67320312 2.9659375 -0.47265625 2.046875 C-0.31667969 1.37140625 -0.16070312 0.6959375 0 0 Z " fill="#EDC66D" transform="translate(511,1008)" data-index="48"></path>
<path d="M0 0 C2.97 0.99 5.94 1.98 9 3 C9 3.99 9 4.98 9 6 C8.67 5.34 8.34 4.68 8 4 C6.35 4.33 4.7 4.66 3 5 C2.01 3.35 1.02 1.7 0 0 Z " fill="#E8B646" transform="translate(696,325)" data-index="49"></path>
<path d="M0 0 C6.75 1.625 6.75 1.625 9 5 C5.37 4.01 1.74 3.02 -2 2 C-1.34 1.34 -0.68 0.68 0 0 Z " fill="#EBB440" transform="translate(799,154)" data-index="50"></path>
<path d="M0 0 C-0.33 0.99 -0.66 1.98 -1 3 C-4.80269732 4.6900877 -7.05272168 5.19873962 -11 4 C-9.5437455 3.32880451 -8.08492133 2.66318193 -6.625 2 C-5.81289063 1.62875 -5.00078125 1.2575 -4.1640625 0.875 C-2 0 -2 0 0 0 Z " fill="#E6B037" transform="translate(389,154)" data-index="51"></path>
<path d="M0 0 C0.66 0 1.32 0 2 0 C3.25664978 2.90600261 4 4.79604584 4 8 C3.01 7.67 2.02 7.34 1 7 C0.67 4.69 0.34 2.38 0 0 Z " fill="#E7AF3E" transform="translate(884,1073)" data-index="52"></path>
<path d="M0 0 C0.66 0 1.32 0 2 0 C2.99 2.97 3.98 5.94 5 9 C4.34 9 3.68 9 3 9 C0 3.375 0 3.375 0 0 Z " fill="#E7B035" transform="translate(783,827)" data-index="53"></path>
<path d="M0 0 C-2.95183101 2.95183101 -5.95511947 3.08663988 -10 4 C-9.67 3.01 -9.34 2.02 -9 1 C-6.04335481 -0.4783226 -3.25770263 -0.06032783 0 0 Z " fill="#E8B43E" transform="translate(702,819)" data-index="54"></path>
<path d="M0 0 C0.66 0.99 1.32 1.98 2 3 C0.02 5.97 0.02 5.97 -2 9 C-2.66 8.34 -3.32 7.68 -4 7 C-2.68 4.69 -1.36 2.38 0 0 Z " fill="#E5AE37" transform="translate(772,638)" data-index="55"></path>
<path d="M0 0 C0.33 0 0.66 0 1 0 C1.25002209 1.74714233 1.47423194 3.49799141 1.6875 5.25 C1.87892578 6.71179688 1.87892578 6.71179688 2.07421875 8.203125 C2 11 2 11 -1 15 C-0.67 10.05 -0.34 5.1 0 0 Z " fill="#EBC063" transform="translate(519,285)" data-index="56"></path>
<path d="M0 0 C3.25543229 0.34879632 4.01873107 1.02133261 6.25 3.5625 C6.8275 4.366875 7.405 5.17125 8 6 C5 6 5 6 3.61328125 4.6875 C2.40885417 3.125 1.20442708 1.5625 0 0 Z " fill="#EAB442" transform="translate(884,755)" data-index="57"></path>
<path d="M0 0 C-3.34939881 2.02558881 -5.86962551 2.21738987 -9.75 2.125 C-10.73484375 2.10695313 -11.7196875 2.08890625 -12.734375 2.0703125 C-13.85585938 2.03550781 -13.85585938 2.03550781 -15 2 C-15 1.67 -15 1.34 -15 1 C-13.25215171 0.63536268 -11.50159498 0.2836922 -9.75 -0.0625 C-8.28820312 -0.35833984 -8.28820312 -0.35833984 -6.796875 -0.66015625 C-4.131881 -0.98397535 -2.51128277 -0.85503199 0 0 Z " fill="#ECC870" transform="translate(664,681)" data-index="58"></path>
<path d="M0 0 C2 3 2 3 2 7 C1.34 7 0.68 7 0 7 C-0.33 8.32 -0.66 9.64 -1 11 C-1.125 3.375 -1.125 3.375 0 0 Z " fill="#E9BC56" transform="translate(524,246)" data-index="59"></path>
<path d="M0 0 C1.07310858 3.27185553 0.89263102 5.42947592 0.0625 8.75 C-0.13214844 9.54921875 -0.32679688 10.3484375 -0.52734375 11.171875 C-0.68332031 11.77515625 -0.83929687 12.3784375 -1 13 C-2.04702186 9.2735915 -2.07442057 5.86986958 -2 2 C-1.34 2 -0.68 2 0 2 C0 1.34 0 0.68 0 0 Z " fill="#EFCA7A" transform="translate(536,960)" data-index="60"></path>
<path d="M0 0 C-1.39332574 3.36720387 -2.9789286 4.9859524 -6 7 C-6 4 -6 4 -4.125 1.8125 C-2 0 -2 0 0 0 Z " fill="#EBB640" transform="translate(373,752)" data-index="61"></path>
<path d="M0 0 C0.33 0 0.66 0 1 0 C1.25 3.25 1.25 3.25 1 7 C-0.32 8.32 -1.64 9.64 -3 11 C-2.01 7.37 -1.02 3.74 0 0 Z " fill="#F7E4BB" transform="translate(109,518)" data-index="62"></path>
<path d="M0 0 C0.33 0 0.66 0 1 0 C2.0070238 5.03511899 1.97387813 8.23947038 0 13 C-0.33 13 -0.66 13 -1 13 C-1.07654536 8.48382401 -1.10228696 4.40914783 0 0 Z " fill="#ECC465" transform="translate(498,1084)" data-index="63"></path>
<path d="M0 0 C0.99 0.495 0.99 0.495 2 1 C2.59355614 3.64860427 2.74209269 6.29197322 3 9 C1.5 7.875 1.5 7.875 0 6 C-0.1875 2.8125 -0.1875 2.8125 0 0 Z " fill="#EBBA47" transform="translate(752,1071)" data-index="64"></path>
<path d="M0 0 C0.99 0 1.98 0 3 0 C4.125 3.75 4.125 3.75 3 6 C2.34 6 1.68 6 1 6 C0.67 4.02 0.34 2.04 0 0 Z " fill="#E6B03F" transform="translate(867,1031)" data-index="65"></path>
<path d="M0 0 C0.66 0.99 1.32 1.98 2 3 C1.125 5.6875 1.125 5.6875 0 8 C-0.99 8 -1.98 8 -3 8 C-1.125 2.25 -1.125 2.25 0 0 Z " fill="#E8B647" transform="translate(480,803)" data-index="66"></path>
<path d="M0 0 C0.33 0 0.66 0 1 0 C1.38133299 1.9914056 1.71325582 3.99279077 2 6 C1.67 6.33 1.34 6.66 1 7 C0.63239269 9.32817964 0.29758419 11.6618385 0 14 C-0.33 14 -0.66 14 -1 14 C-1.18451025 4.58997722 -1.18451025 4.58997722 0 0 Z " fill="#F9E9C6" transform="translate(469,563)" data-index="67"></path>
<path d="M0 0 C-0.8125 1.9375 -0.8125 1.9375 -2 4 C-2.99 4.33 -3.98 4.66 -5 5 C-5.66 4.34 -6.32 3.68 -7 3 C-2.25 0 -2.25 0 0 0 Z " fill="#E6AF39" transform="translate(557,475)" data-index="68"></path>
</svg>